<svg width="85" height="48" viewBox="0 0 85 48" fill="none" xmlns="http://www.w3.org/2000/svg">
<path d="M43.5615 2.119C42.8662 4.10456 44.602 6.28868 46.5902 6.58906C47.7749 6.76725 49.1296 6.3345 49.7116 5.21953C50.3503 3.98747 49.6807 2.60266 48.5939 1.87971C47.2753 1.00403 45.5755 1.46223 44.2105 1.94081C43.7366 2.10882 43.3658 2.60266 43.5358 3.11687C43.6851 3.58017 44.2157 3.96201 44.7256 3.78382C45.2355 3.60563 45.7506 3.42743 46.2863 3.33579C46.2863 3.33579 46.549 3.30015 46.3945 3.31543C46.24 3.3307 46.4975 3.31034 46.5027 3.30525C46.6211 3.29506 46.7396 3.29506 46.8581 3.29506C46.925 3.29506 46.9868 3.30015 47.0538 3.30525C47.2495 3.32052 47.0538 3.30015 47.0332 3.30525C47.095 3.29506 47.2083 3.34088 47.265 3.35616C47.301 3.36634 47.4041 3.41725 47.4298 3.40707C47.4144 3.41216 47.2135 3.30015 47.3628 3.38161C47.4041 3.40707 47.4504 3.42743 47.4916 3.4478C47.5328 3.46816 47.574 3.49871 47.6152 3.52417C47.7543 3.60563 47.5689 3.5038 47.5637 3.47835C47.5792 3.52926 47.7337 3.62599 47.7801 3.6769C47.8058 3.70745 47.8316 3.73291 47.8573 3.76345C47.9861 3.89582 47.7492 3.58017 47.8676 3.77873C47.9088 3.85509 47.9552 3.92637 47.9964 4.00274C48.0943 4.17584 47.9346 3.78891 47.9861 3.98237C47.9964 4.01801 48.0067 4.05365 48.017 4.08929C48.017 4.10456 48.0273 4.17584 48.0428 4.1962L48.0222 4.04856C48.0222 4.0842 48.0273 4.11984 48.0273 4.15547C48.0273 4.19111 48.0273 4.22675 48.0273 4.26239C48.0273 4.44567 48.084 4.05874 48.0273 4.22166C48.017 4.25221 47.9758 4.34894 47.9809 4.37949C47.9809 4.34894 48.0943 4.17584 48.0067 4.30312C48.0067 4.30312 47.95 4.41513 47.9346 4.41513L48.0067 4.32857C47.9758 4.36421 47.95 4.39476 47.9191 4.42531C47.8882 4.45585 47.8522 4.4864 47.8213 4.51695C47.6616 4.66459 47.95 4.44058 47.8316 4.50677C47.7337 4.55768 47.6461 4.61877 47.5483 4.66968C47.3834 4.75623 47.7286 4.61877 47.6101 4.64423C47.5689 4.65441 47.5277 4.67478 47.4865 4.68496C47.4144 4.70532 47.3371 4.71551 47.265 4.73587C47.1414 4.77151 47.5328 4.71551 47.3474 4.72569C47.3113 4.72569 47.2804 4.73078 47.2444 4.73078C47.1414 4.73078 47.0435 4.73078 46.9405 4.7206C46.8581 4.7206 46.8169 4.66968 47.0435 4.73587C47.0023 4.72569 46.9611 4.7206 46.9199 4.71041C46.8426 4.69514 46.7705 4.67478 46.6984 4.65441C46.616 4.62896 46.5387 4.59332 46.4563 4.56786C46.7499 4.65441 46.4666 4.56786 46.379 4.51695C46.3121 4.48131 46.24 4.44058 46.1781 4.39476C46.1318 4.36421 46.0906 4.33367 46.0494 4.30312C45.9773 4.2573 45.9979 4.21657 46.1163 4.35912C46.003 4.22675 45.8485 4.13002 45.7352 3.99765C45.7043 3.96201 45.6734 3.9111 45.6322 3.88055C45.7043 3.94674 45.7506 4.04347 45.6579 3.90601C45.6064 3.83473 45.56 3.76345 45.5188 3.68708C45.4931 3.64126 45.4673 3.59544 45.4467 3.54962C45.4055 3.46816 45.4055 3.34088 45.4622 3.59035C45.4467 3.50889 45.4055 3.43253 45.3798 3.35107C45.3643 3.30525 45.354 3.25433 45.3437 3.20342C45.3231 3.11178 45.3489 2.9845 45.3437 3.25942C45.3437 3.16778 45.3283 3.07614 45.3334 2.9845C45.3334 2.94377 45.3334 2.90304 45.3386 2.85722C45.3437 2.68412 45.2871 3.09142 45.3334 2.90813C45.3592 2.80631 45.3798 2.70449 45.4158 2.60775C45.5807 2.13427 45.2252 1.54369 44.7411 1.43169C44.2054 1.3095 43.7315 1.59461 43.5512 2.09863L43.5615 2.119Z" fill="#C4142D"/>
<path d="M51.0459 0.734233C50.3505 2.7198 52.0864 4.90392 54.0746 5.2043C55.2593 5.38249 56.614 4.94974 57.196 3.83477C57.8347 2.6027 57.1651 1.2179 56.0783 0.494947C54.7596 -0.380738 53.0599 0.0774694 51.6949 0.556041C51.221 0.72405 50.8502 1.2179 51.0201 1.73211C51.1695 2.1954 51.7 2.57724 52.21 2.39905C52.7199 2.22086 53.235 2.04267 53.7707 1.95103C53.7707 1.95103 54.0334 1.91539 53.8789 1.93066C53.7243 1.94594 53.9819 1.92557 53.987 1.92048C54.1055 1.9103 54.224 1.9103 54.3424 1.9103C54.4094 1.9103 54.4712 1.91539 54.5382 1.92048C54.7339 1.93575 54.5382 1.91539 54.5176 1.92048C54.5794 1.9103 54.6927 1.95612 54.7493 1.97139C54.7854 1.98157 54.8884 2.03249 54.9142 2.0223C54.8987 2.02739 54.6978 1.91539 54.8472 1.99685C54.8884 2.0223 54.9348 2.04267 54.976 2.06303C55.0172 2.0834 55.0584 2.11395 55.0996 2.1394C55.2387 2.22086 55.0532 2.11904 55.0481 2.09358C55.0635 2.14449 55.2181 2.24122 55.2644 2.29214C55.2902 2.32268 55.3159 2.34814 55.3417 2.37869C55.4705 2.51106 55.2335 2.1954 55.352 2.39396C55.3932 2.47033 55.4396 2.5416 55.4808 2.61797C55.5786 2.79107 55.419 2.40414 55.4705 2.59761C55.4808 2.63325 55.4911 2.66888 55.5014 2.70452C55.5014 2.7198 55.5117 2.79107 55.5271 2.81144L55.5065 2.66379C55.5065 2.69943 55.5117 2.73507 55.5117 2.77071C55.5117 2.80635 55.5117 2.84199 55.5117 2.87762C55.5117 3.06091 55.5683 2.67398 55.5117 2.83689C55.5014 2.86744 55.4602 2.96417 55.4653 2.99472C55.4653 2.96417 55.5786 2.79107 55.4911 2.91835C55.4911 2.91835 55.4344 3.03036 55.419 3.03036L55.4911 2.94381C55.4602 2.97945 55.4344 3.00999 55.4035 3.04054C55.3726 3.07109 55.3365 3.10164 55.3056 3.13218C55.146 3.27983 55.4344 3.05582 55.3159 3.122C55.2181 3.17291 55.1305 3.23401 55.0326 3.28492C54.8678 3.37147 55.2129 3.23401 55.0945 3.25946C55.0532 3.26965 55.012 3.29001 54.9708 3.30019C54.8987 3.32056 54.8215 3.33074 54.7493 3.3511C54.6257 3.38674 55.0172 3.33074 54.8318 3.34092C54.7957 3.34092 54.7648 3.34601 54.7287 3.34601C54.6257 3.34601 54.5279 3.34601 54.4248 3.33583C54.3424 3.33583 54.3012 3.28492 54.5279 3.3511C54.4867 3.34092 54.4454 3.33583 54.4042 3.32565C54.327 3.31037 54.2549 3.29001 54.1828 3.26965C54.1003 3.24419 54.0231 3.20855 53.9407 3.18309C54.2343 3.26965 53.951 3.1831 53.8634 3.13218C53.7964 3.09654 53.7243 3.05582 53.6625 3.00999C53.6162 2.97945 53.575 2.9489 53.5337 2.91835C53.4616 2.87253 53.4822 2.8318 53.6007 2.97436C53.4874 2.84199 53.3329 2.74525 53.2195 2.61288C53.1886 2.57724 53.1577 2.52633 53.1165 2.49578C53.1886 2.56197 53.235 2.6587 53.1423 2.52124C53.0908 2.44996 53.0444 2.37869 53.0032 2.30232C52.9775 2.2565 52.9517 2.21068 52.9311 2.16486C52.8899 2.0834 52.8899 1.95612 52.9465 2.20559C52.9311 2.12413 52.8899 2.04776 52.8641 1.9663C52.8487 1.92048 52.8384 1.86957 52.8281 1.81866C52.8075 1.72701 52.8332 1.59973 52.8281 1.87466C52.8281 1.78302 52.8126 1.69138 52.8178 1.59974C52.8178 1.55901 52.8178 1.51828 52.8229 1.47246C52.8281 1.29935 52.7714 1.70665 52.8178 1.52337C52.8435 1.42154 52.8641 1.31972 52.9002 1.22299C53.065 0.749506 52.7096 0.158928 52.2254 0.0469223C51.6897 -0.0752663 51.2159 0.20984 51.0356 0.713868L51.0459 0.734233Z" fill="#C4142D"/>
<path d="M34.2691 9.45722C34.4236 9.47759 34.7738 9.53359 35.3095 9.62523C35.8452 9.71178 36.6178 9.76778 37.6274 9.79324C37.648 9.70669 37.6686 9.62523 37.6789 9.55904C37.6892 9.49286 37.6944 9.42667 37.6944 9.36049C37.715 8.14369 37.9107 7.30365 38.2816 6.84035C38.6524 6.37705 39.2705 6.11231 40.1462 6.04612C40.481 6.02576 40.7282 6.12249 40.8827 6.3465C41.0373 6.57052 41.1197 6.86071 41.1197 7.22728C41.1197 7.59385 41.063 7.99605 40.9497 8.43898C40.8364 8.88192 40.6819 9.31467 40.481 9.73215C41.4648 9.66596 42.5774 9.54886 43.8239 9.38594C45.0652 9.21794 46.4663 8.97865 48.0218 8.6579C49.5774 8.33716 51.2875 7.92986 53.1572 7.43093C55.027 6.93199 57.0822 6.33123 59.3176 5.62356C59.5855 5.53701 59.8224 5.52173 60.0233 5.58792C60.2242 5.6541 60.3684 5.76611 60.4611 5.91884C60.5487 6.07158 60.5487 6.24977 60.4611 6.44833C60.3736 6.64688 60.183 6.84544 59.8894 7.044C59.7091 7.156 59.2867 7.34947 58.612 7.62439C57.9424 7.89932 57.0822 8.22515 56.0417 8.6019C55.0012 8.97865 53.8165 9.36558 52.4825 9.76269C51.1484 10.1598 49.7371 10.5315 48.233 10.8726C46.7341 11.2137 45.1992 11.509 43.6333 11.7533C42.0674 11.9977 40.5222 12.1301 38.9975 12.1505C38.6164 12.8378 38.127 13.7644 37.5192 14.9404C36.9166 16.1114 36.2624 17.4402 35.5568 18.9217C34.8511 20.4033 34.1248 21.9917 33.3728 23.682C32.6208 25.3723 31.8997 27.0829 31.2095 28.8088C32.1469 28.6561 33.0947 28.4983 34.0476 28.3455C35.0005 28.1928 35.871 28.0604 36.6642 27.9484C37.4574 27.8364 38.1322 27.7448 38.6782 27.6684C39.2242 27.592 39.5693 27.5513 39.7032 27.5513C40.1513 27.5717 40.4861 27.6939 40.7128 27.9179C40.9343 28.1368 41.0424 28.3863 41.0321 28.6663C41.0218 28.9412 40.893 29.2009 40.6458 29.4452C40.3986 29.6896 40.0432 29.822 39.5693 29.8423C38.4258 29.9085 37.4317 29.99 36.5818 30.0918C35.7319 30.1936 34.9438 30.3056 34.2124 30.438C33.4861 30.5704 32.7959 30.7333 32.1469 30.9217C31.4979 31.1101 30.8283 31.3137 30.1329 31.5377C29.4376 33.4418 28.8452 35.2543 28.3559 36.9802C27.8614 38.7061 27.5575 40.2233 27.4339 41.5266C27.3103 42.83 27.3978 43.8737 27.7017 44.6475C28.0056 45.4214 28.6134 45.7981 29.5303 45.7778C31.1888 45.7574 32.8062 45.4519 34.3824 44.8664C35.9585 44.281 37.4677 43.5478 38.8997 42.6772C40.3316 41.8016 41.6657 40.8648 42.8967 39.8567C44.1278 38.8487 45.2249 37.9068 46.1881 37.0209C46.4096 36.8224 46.7496 36.4507 47.1977 35.911C47.6458 35.3714 48.1042 34.8113 48.573 34.236C49.0417 33.6607 49.4692 33.1313 49.8504 32.6425C50.2315 32.1537 50.453 31.8686 50.52 31.7821C50.9424 31.273 51.3853 31.0082 51.8438 30.9879C52.3022 30.9675 52.6524 31.0897 52.8997 31.3544C53.1469 31.6192 53.2293 31.9705 53.1521 32.3981C53.0748 32.8309 52.7091 33.2433 52.0601 33.6404C51.8128 33.7931 51.2978 34.236 50.5148 34.9692C49.7319 35.6972 48.7687 36.578 47.6252 37.6064C46.4817 38.6348 45.2095 39.7294 43.7981 40.8902C42.3868 42.051 40.9343 43.1405 39.4354 44.1588C37.9365 45.177 36.4376 46.0374 34.9387 46.7451C33.4398 47.4528 32.0284 47.8601 30.7098 47.9721C29.3912 48.0841 28.2323 47.8601 27.233 47.3102C26.2389 46.7553 25.5796 45.9152 25.2705 44.7901C25.0439 43.9959 24.9357 43.1253 24.9357 42.1834C24.9357 41.2415 25.0181 40.2538 25.1881 39.2152C25.3581 38.1766 25.6002 37.0973 25.9247 35.9772C26.2492 34.8623 26.6355 33.7269 27.0836 32.5763L24.6009 33.3705C24.0652 33.5487 23.6892 33.4927 23.478 33.2025C23.2668 32.9174 23.1999 32.556 23.2771 32.1232C23.3544 31.6904 23.5759 31.2475 23.9313 30.7944C24.2867 30.3413 24.7709 30.0256 25.3735 29.8474C25.4869 29.8016 25.8165 29.7354 26.3625 29.6489C26.9085 29.5623 27.5884 29.4401 28.3919 29.2823C29.1079 27.6226 29.8754 25.9781 30.6892 24.354C31.5082 22.73 32.2963 21.172 33.0586 19.6905C33.8209 18.209 34.5317 16.8242 35.1911 15.5412C35.8504 14.2582 36.3964 13.128 36.8187 12.1556C35.7886 12.0894 34.8253 11.957 33.9291 11.7584C33.481 11.6719 33.1719 11.4937 33.0071 11.229C32.8371 10.9642 32.7753 10.6944 32.8217 10.4144C32.868 10.1394 33.0174 9.90016 33.2749 9.7016C33.5325 9.50304 33.8621 9.42667 34.2639 9.4674L34.2691 9.45722Z" fill="#C4142D"/>
<path d="M75.2122 31.647L73.6995 34.487V44.0274H68.8057V12.9656H73.6995V26.4997L80.195 12.9656H84.9999L78.193 26.8103L84.9999 44.0274H79.9725L75.2122 31.647Z" fill="white"/>
<path d="M61.6864 17.403H55.9918V36.3063C55.9918 37.8742 55.799 39.161 55.4134 40.1669C55.0278 41.1727 54.5088 41.9714 53.8563 42.5631C53.2038 43.1251 52.4474 43.5245 51.5873 43.7612C50.7568 43.9978 49.8819 44.1161 48.9624 44.1161C48.5175 44.1161 48.1171 44.1161 47.7612 44.1161C47.4053 44.1161 47.0197 44.0866 46.6045 44.0274V39.59C46.8714 39.6196 47.1532 39.6344 47.4498 39.6344C47.7464 39.6344 48.0282 39.6344 48.2951 39.6344C49.0662 39.6344 49.7188 39.4421 50.2526 39.0575C50.8162 38.6729 51.0979 37.8742 51.0979 36.6613V12.9656H66.5803V44.0274H61.6864V17.403Z" fill="white"/>
<path d="M0 12.9656H4.84936V39.59H8.85341V12.9656H13.7473V39.59H17.7068V12.9656H22.6452V39.59H25.1811V47.5773H20.1982V44.0274H0V12.9656Z" fill="white"/>
</svg>
