<svg width="159" height="159" viewBox="0 0 159 159" fill="none" xmlns="http://www.w3.org/2000/svg">
<path d="M14.6842 74.0276C14.5533 74.8927 14.2288 75.6364 13.7106 76.2586C13.1924 76.8807 12.518 77.3318 11.6875 77.6117C10.8524 77.891 9.90096 77.9498 8.83304 77.7882C7.7561 77.6252 6.86238 77.2872 6.15186 76.774C5.43683 76.2602 4.92387 75.6295 4.61296 74.8819C4.30205 74.1342 4.21206 73.3278 4.34298 72.4627C4.47526 71.5885 4.80016 70.8426 5.31768 70.2249C5.83519 69.6072 6.51112 69.161 7.34548 68.8863C8.17601 68.6064 9.12974 68.5479 10.2067 68.7109C11.2791 68.8731 12.1706 69.2109 12.8811 69.724C13.5923 70.2326 14.1037 70.8585 14.4153 71.6016C14.7269 72.3448 14.8165 73.1534 14.6842 74.0276ZM13.2986 73.8179C13.3866 73.2366 13.3208 72.6966 13.1013 72.1979C12.8818 71.6991 12.5102 71.2765 11.9865 70.9299C11.4635 70.5788 10.7942 70.3415 9.97858 70.2181C9.15849 70.094 8.44671 70.1223 7.84323 70.3029C7.23592 70.4783 6.75365 70.7718 6.39639 71.1832C6.03914 71.5947 5.81653 72.0911 5.72857 72.6723C5.64129 73.2491 5.70707 73.7891 5.9259 74.2924C6.14542 74.7911 6.51893 75.2164 7.04646 75.5681C7.56948 75.9192 8.24103 76.1568 9.06112 76.2809C9.87671 76.4043 10.5862 76.3757 11.1897 76.1951C11.7932 76.0145 12.2736 75.7185 12.6308 75.307C12.9888 74.891 13.2114 74.3947 13.2986 73.8179Z" fill="white"/>
<path d="M6.31411 66.5114L5.04471 66.1519L7.19453 58.5618L8.46392 58.9213L7.59953 61.9731L16.1302 64.3894L15.7129 65.8627L7.18223 63.4464L6.31411 66.5114Z" fill="white"/>
<path d="M10.7152 48.8163L19.9578 53.0965L19.3143 54.486L11.2627 50.7573L9.24902 55.1057L17.3006 58.8343L16.6571 60.2238L7.41456 55.9436L10.7152 48.8163Z" fill="white"/>
<path d="M20.5071 50.9728L11.8737 45.5683L13.8033 42.4858C14.2217 41.8175 14.6923 41.3405 15.2152 41.0549C15.7342 40.7669 16.2751 40.6458 16.8378 40.6916C17.3967 40.735 17.9408 40.9224 18.47 41.2537C18.9992 41.5849 19.4073 41.9937 19.6944 42.4798C19.9776 42.9636 20.1038 43.505 20.0729 44.104C20.0406 44.6967 19.8141 45.3291 19.3933 46.0012L18.073 48.1103L16.9721 47.4212L18.2163 45.4337C18.4847 45.005 18.6277 44.6133 18.6454 44.2587C18.6654 43.9003 18.5855 43.5814 18.4055 43.3021C18.224 43.0165 17.9711 42.7721 17.6466 42.569C17.3183 42.3634 16.9899 42.2439 16.6614 42.2103C16.3315 42.1704 16.0116 42.239 15.7019 42.4161C15.3921 42.5932 15.103 42.8961 14.8346 43.3249L13.8081 44.9646L21.3232 49.6691L20.5071 50.9728Z" fill="white"/>
<path d="M25.0147 43.0876L23.9645 44.3391L18.5174 34.985L19.6598 33.6235L29.8132 37.3693L28.7673 38.6156L20.5297 35.4689L20.4769 35.5318L25.0147 43.0876ZM22.1376 40.3163L25.5343 36.2685L26.5188 37.0946L23.1221 41.1424L22.1376 40.3163Z" fill="white"/>
<path d="M30.4718 36.0001L23.6452 28.4409L26.4202 25.9347C26.9546 25.4521 27.4771 25.1399 27.9877 24.9981C28.4983 24.8564 28.9757 24.8581 29.4201 25.0033C29.8647 25.1421 30.2551 25.3975 30.5911 25.7696C30.8751 26.0841 31.0557 26.4031 31.1328 26.7265C31.2133 27.0468 31.2152 27.3582 31.1385 27.6609C31.0618 27.9635 30.9342 28.2506 30.7558 28.5223L30.82 28.5933C31.0858 28.3777 31.406 28.2359 31.7806 28.1679C32.1551 28.0998 32.5439 28.1325 32.9469 28.266C33.3502 28.393 33.729 28.6527 34.0833 29.045C34.4315 29.4306 34.6533 29.8597 34.7486 30.3324C34.8442 30.7987 34.7853 31.291 34.5718 31.8093C34.3582 32.3276 33.9572 32.8525 33.3687 33.384L30.4718 36.0001ZM30.7337 33.9952L32.3774 32.5107C32.9253 32.0159 33.2214 31.555 33.2658 31.1281C33.3101 30.7013 33.1887 30.3288 32.9016 30.0109C32.6847 29.7708 32.4268 29.6076 32.1279 29.5214C31.8293 29.4288 31.5149 29.424 31.1848 29.5073C30.8547 29.5905 30.5374 29.7695 30.233 30.0444L28.5436 31.5701L30.7337 33.9952ZM27.7418 30.6823L29.274 29.2986C29.5276 29.0696 29.7133 28.8128 29.8311 28.5284C29.9488 28.244 29.9859 27.9587 29.9424 27.6726C29.8992 27.38 29.7692 27.1136 29.5523 26.8735C29.2713 26.5623 28.9262 26.4011 28.517 26.39C28.1081 26.3724 27.6787 26.5667 27.2289 26.973L25.6663 28.3841L27.7418 30.6823Z" fill="white"/>
<path d="M30.441 21.6074L31.7265 20.7628L35.8332 27.0129L35.9075 26.9641L36.1369 17.8648L37.3252 17.084L42.9185 25.5964L41.633 26.441L37.5338 20.2024L37.4481 20.2587L37.234 29.3315L36.0343 30.1198L30.441 21.6074Z" fill="white"/>
<path d="M39.9406 16.4942L39.3596 15.3097L46.4423 11.8359L47.0233 13.0205L44.1755 14.4172L48.0796 22.3775L46.7048 23.0518L42.8007 15.0915L39.9406 16.4942Z" fill="white"/>
<path d="M51.4281 13.7869L54.0354 12.9407C54.755 12.7071 55.4042 12.6258 55.9829 12.6967C56.5603 12.7633 57.053 12.9675 57.4611 13.3094C57.8677 13.647 58.1645 14.104 58.3516 14.6806C58.5402 15.2614 58.5718 15.8165 58.4465 16.3459C58.3199 16.8709 58.0459 17.3407 57.6247 17.7553C57.202 18.1656 56.6309 18.4875 55.9114 18.721L52.2832 19.8985L49.139 10.2104L50.602 9.7356L53.3452 18.1883L55.5104 17.4856C55.9309 17.3492 56.2582 17.1543 56.4922 16.9011C56.7306 16.6464 56.8805 16.363 56.9421 16.0508C57.008 15.7371 56.9931 15.4329 56.8975 15.1381C56.7554 14.7003 56.4668 14.3795 56.0317 14.1758C55.5967 13.972 55.0649 13.9721 54.4363 14.1761L51.829 15.0222L51.4281 13.7869Z" fill="white"/>
<path d="M67.6979 12.0444C67.4223 12.0807 67.1748 12.0168 66.9555 11.8526C66.7408 11.6879 66.6152 11.4677 66.5789 11.1921C66.5426 10.9164 66.6068 10.6713 66.7716 10.4565C66.9409 10.2411 67.1633 10.1153 67.4389 10.079C67.7146 10.0427 67.9597 10.1069 68.1745 10.2716C68.3938 10.4358 68.5216 10.6557 68.5579 10.9313C68.5942 11.2069 68.5277 11.4524 68.3585 11.6678C68.1937 11.8825 67.9735 12.0081 67.6979 12.0444Z" fill="white"/>
<path d="M83.346 14.6433C82.4789 14.5257 81.7303 14.2126 81.1003 13.704C80.4702 13.1954 80.0089 12.528 79.7162 11.7019C79.4242 10.8713 79.3508 9.92079 79.496 8.85052C79.6424 7.77121 79.9667 6.87241 80.4689 6.15409C80.9716 5.43127 81.5944 4.90868 82.3372 4.58634C83.08 4.26399 83.8849 4.16164 84.752 4.27926C85.6281 4.39811 86.3789 4.71153 87.0044 5.2195C87.63 5.72747 88.0865 6.39648 88.374 7.22652C88.6666 8.05265 88.7397 9.00537 88.5933 10.0847C88.4475 11.1595 88.1235 12.056 87.6214 12.7743C87.1237 13.4933 86.5058 14.0142 85.7675 14.3372C85.0292 14.6601 84.222 14.7622 83.346 14.6433ZM83.5343 13.2547C84.1169 13.3337 84.6558 13.2596 85.1512 13.0325C85.6465 12.8054 86.0634 12.4273 86.4019 11.8983C86.7449 11.37 86.9719 10.6971 87.0827 9.87975C87.1942 9.05785 87.1551 8.34659 86.9652 7.74595C86.7805 7.14141 86.4797 6.66369 86.0628 6.3128C85.6459 5.9619 85.1461 5.74694 84.5636 5.66791C83.9855 5.58949 83.4466 5.66355 82.9468 5.89008C82.4515 6.11722 82.032 6.49722 81.6883 7.03008C81.3453 7.55843 81.1181 8.23355 81.0066 9.05545C80.8957 9.87283 80.9352 10.5818 81.125 11.1825C81.3149 11.7831 81.6183 12.2589 82.0352 12.6098C82.4566 12.9613 82.9563 13.1762 83.5343 13.2547Z" fill="white"/>
<path d="M90.7411 6.18165L91.0814 4.90694L98.7032 6.9414L98.3629 8.2161L95.2983 7.39809L93.0118 15.9644L91.5323 15.5695L93.8189 7.00319L90.7411 6.18165Z" fill="white"/>
<path d="M108.384 10.2894L104.242 19.5947L102.843 18.972L106.451 10.8657L102.073 8.91703L98.4648 17.0233L97.0659 16.4006L101.208 7.09525L108.384 10.2894Z" fill="white"/>
<path d="M106.378 20.1204L111.655 11.4084L114.766 13.2926C115.44 13.7011 115.924 14.1646 116.217 14.6833C116.513 15.198 116.642 15.7371 116.604 16.3004C116.569 16.8599 116.39 17.4066 116.066 17.9406C115.743 18.4747 115.34 18.8888 114.858 19.183C114.379 19.4733 113.839 19.6074 113.24 19.5853C112.647 19.5617 112.011 19.3445 111.333 18.9337L109.205 17.6445L109.878 16.5336L111.883 17.7484C112.316 18.0105 112.709 18.1477 113.064 18.1602C113.423 18.1749 113.741 18.0903 114.017 17.9062C114.3 17.7206 114.541 17.4641 114.739 17.1367C114.94 16.8054 115.055 16.4752 115.083 16.1463C115.118 15.8158 115.045 15.497 114.863 15.1899C114.682 14.8828 114.375 14.5982 113.942 14.3361L112.287 13.3338L107.694 20.9173L106.378 20.1204Z" fill="white"/>
<path d="M114.325 24.5061L113.058 23.4742L122.332 17.8914L123.71 19.014L120.112 29.2207L118.851 28.1932L121.877 19.9106L121.814 19.8588L114.325 24.5061ZM117.054 21.5889L121.151 24.9263L120.339 25.9227L116.242 22.5853L117.054 21.5889Z" fill="white"/>
<path d="M121.474 29.8485L128.933 22.9126L131.479 25.651C131.969 26.1783 132.289 26.6962 132.438 27.2046C132.588 27.7131 132.593 28.1905 132.454 28.6369C132.322 29.0836 132.072 29.4776 131.705 29.8189C131.395 30.1075 131.078 30.2927 130.756 30.3745C130.437 30.4597 130.126 30.4661 129.822 30.3938C129.518 30.3215 129.229 30.1981 128.955 30.0237L128.885 30.0889C129.104 30.3516 129.251 30.6697 129.324 31.0432C129.398 31.4167 129.371 31.8059 129.243 32.2108C129.122 32.6159 128.868 32.9985 128.481 33.3584C128.1 33.7122 127.674 33.9402 127.203 34.0424C126.738 34.1448 126.245 34.093 125.724 33.887C125.202 33.681 124.672 33.2877 124.132 32.707L121.474 29.8485ZM123.482 30.0811L124.99 31.7031C125.493 32.2438 125.958 32.5332 126.386 32.5713C126.813 32.6094 127.184 32.4826 127.498 32.1909C127.735 31.9705 127.894 31.7103 127.976 31.4102C128.064 31.1103 128.064 30.7959 127.976 30.467C127.888 30.1381 127.705 29.8235 127.425 29.5231L125.875 27.856L123.482 30.0811ZM126.751 27.0414L128.157 28.5533C128.39 28.8036 128.649 28.9855 128.935 29.0991C129.221 29.2127 129.507 29.2457 129.793 29.198C130.085 29.1506 130.349 29.0167 130.586 28.7964C130.893 28.5109 131.049 28.1634 131.054 27.7541C131.066 27.345 130.866 26.9185 130.453 26.4746L129.019 24.9327L126.751 27.0414Z" fill="white"/>
<path d="M135.846 29.576L136.709 30.8489L130.52 35.0468L130.57 35.1203L139.671 35.2164L140.469 36.3931L132.04 42.1105L131.177 40.8376L137.354 36.6474L137.297 36.5626L128.222 36.4814L127.416 35.2934L135.846 29.576Z" fill="white"/>
<path d="M141.08 38.9487L142.256 38.3502L145.834 45.3806L144.658 45.9791L143.219 43.1523L135.318 47.1741L134.623 45.8094L142.525 41.7876L141.08 38.9487Z" fill="white"/>
<path d="M143.968 50.3938L144.853 52.988C145.097 53.704 145.188 54.3519 145.126 54.9317C145.068 55.51 144.872 56.0057 144.536 56.4189C144.205 56.8305 143.752 57.1342 143.178 57.33C142.6 57.5273 142.046 57.5673 141.515 57.45C140.988 57.3313 140.514 57.0644 140.093 56.6495C139.676 56.2331 139.346 55.6669 139.102 54.9509L137.87 51.3409L147.509 48.051L148.006 49.5067L139.596 52.3771L140.331 54.5314C140.474 54.9498 140.673 55.2741 140.93 55.5042C141.188 55.7388 141.474 55.8844 141.787 55.9413C142.102 56.0025 142.406 55.983 142.699 55.8829C143.135 55.7342 143.451 55.4408 143.648 55.0028C143.845 54.5647 143.837 54.0329 143.624 53.4076L142.738 50.8133L143.968 50.3938Z" fill="white"/>
<path d="M145.96 66.5838C145.919 66.3088 145.979 66.0604 146.14 65.8386C146.301 65.6214 146.52 65.4925 146.795 65.4519C147.07 65.4114 147.316 65.4718 147.533 65.6333C147.751 65.7992 147.88 66.0197 147.921 66.2948C147.961 66.5698 147.901 66.8159 147.739 67.0332C147.579 67.255 147.361 67.3861 147.086 67.4267C146.811 67.4672 146.564 67.4045 146.346 67.2386C146.129 67.0771 146 66.8589 145.96 66.5838Z" fill="white"/>
<path d="M143.62 82.4149C143.728 81.5465 144.032 80.7944 144.534 80.1585C145.035 79.5227 145.697 79.0537 146.52 78.7515C147.347 78.4499 148.296 78.3656 149.368 78.4984C150.449 78.6324 151.352 78.9463 152.076 79.4402C152.804 79.9346 153.334 80.5513 153.665 81.2903C153.996 82.0294 154.107 82.833 154 83.7014C153.891 84.5788 153.586 85.3332 153.086 85.9645C152.585 86.5959 151.921 87.0601 151.094 87.3571C150.272 87.6593 149.32 87.7434 148.239 87.6094C147.163 87.476 146.262 87.1623 145.538 86.6685C144.814 86.1792 144.286 85.5672 143.954 84.8327C143.623 84.0982 143.511 83.2923 143.62 82.4149ZM145.011 82.5873C144.939 83.1707 145.019 83.7087 145.252 84.2014C145.485 84.6941 145.867 85.1066 146.4 85.439C146.932 85.7759 147.608 85.9951 148.426 86.0965C149.25 86.1986 149.96 86.1512 150.559 85.9544C151.161 85.7627 151.635 85.4564 151.981 85.0355C152.328 84.6146 152.537 84.1124 152.609 83.529C152.681 82.9501 152.601 82.4121 152.368 81.9149C152.135 81.4222 151.751 81.0071 151.214 80.6697C150.682 80.3328 150.004 80.1133 149.181 80.0113C148.362 79.9098 147.654 79.9575 147.055 80.1542C146.457 80.351 145.985 80.6598 145.638 81.0808C145.292 81.5062 145.083 82.0084 145.011 82.5873Z" fill="white"/>
<path d="M152.193 89.7037L153.472 90.0294L151.524 97.6739L150.246 97.3482L151.029 94.2745L142.437 92.0857L142.815 90.6018L151.407 92.7907L152.193 89.7037Z" fill="white"/>
<path d="M148.355 107.309L138.989 103.306L139.591 101.898L147.75 105.385L149.633 100.979L141.474 97.4918L142.076 96.0838L151.442 100.087L148.355 107.309Z" fill="white"/>
<path d="M138.519 105.43L147.308 110.578L145.469 113.716C145.071 114.397 144.614 114.887 144.1 115.188C143.59 115.491 143.053 115.628 142.489 115.599C141.929 115.572 141.38 115.401 140.841 115.085C140.302 114.77 139.882 114.373 139.581 113.896C139.284 113.42 139.142 112.883 139.155 112.283C139.17 111.69 139.378 111.051 139.778 110.367L141.036 108.22L142.157 108.876L140.972 110.899C140.716 111.336 140.585 111.732 140.577 112.087C140.568 112.445 140.657 112.762 140.845 113.036C141.035 113.316 141.295 113.553 141.625 113.746C141.96 113.942 142.291 114.052 142.621 114.076C142.952 114.106 143.269 114.028 143.574 113.842C143.878 113.656 144.158 113.344 144.414 112.908L145.392 111.239L137.741 106.757L138.519 105.43Z" fill="white"/>
<path d="M134.284 113.416L135.298 112.135L141.015 121.326L139.913 122.72L129.654 119.272L130.664 117.996L138.989 120.901L139.04 120.837L134.284 113.416ZM137.241 116.102L133.964 120.248L132.955 119.45L136.233 115.305L137.241 116.102Z" fill="white"/>
<path d="M129.119 120.604L136.162 127.961L133.461 130.547C132.941 131.045 132.428 131.372 131.922 131.529C131.416 131.686 130.938 131.698 130.49 131.565C130.041 131.44 129.644 131.196 129.297 130.834C129.004 130.527 128.814 130.214 128.728 129.893C128.638 129.575 128.627 129.264 128.695 128.959C128.763 128.654 128.882 128.364 129.052 128.087L128.986 128.018C128.727 128.241 128.411 128.392 128.038 128.471C127.666 128.55 127.276 128.528 126.87 128.407C126.463 128.292 126.077 128.043 125.711 127.661C125.352 127.286 125.118 126.863 125.009 126.394C124.899 125.93 124.944 125.436 125.142 124.912C125.341 124.388 125.726 123.852 126.299 123.303L129.119 120.604ZM128.915 122.616L127.316 124.147C126.782 124.658 126.5 125.127 126.468 125.555C126.436 125.983 126.568 126.352 126.864 126.661C127.088 126.895 127.351 127.051 127.652 127.128C127.953 127.212 128.267 127.208 128.595 127.115C128.922 127.022 129.234 126.834 129.531 126.55L131.175 124.976L128.915 122.616ZM132.002 125.84L130.511 127.268C130.264 127.504 130.086 127.766 129.977 128.054C129.867 128.342 129.838 128.628 129.89 128.913C129.942 129.204 130.08 129.466 130.303 129.7C130.593 130.003 130.943 130.154 131.352 130.153C131.761 130.159 132.185 129.952 132.623 129.533L134.144 128.077L132.002 125.84Z" fill="white"/>
<path d="M129.626 134.987L128.365 135.869L124.077 129.742L124.005 129.793L124.042 138.895L122.877 139.71L117.037 131.365L118.297 130.483L122.577 136.599L122.661 136.54L122.609 127.465L123.785 126.642L129.626 134.987Z" fill="white"/>
<path d="M120.407 140.348L121.023 141.515L114.046 145.197L113.431 144.03L116.236 142.55L112.097 134.709L113.452 133.994L117.59 141.835L120.407 140.348Z" fill="white"/>
<path d="M108.939 143.471L106.358 144.396C105.646 144.651 104.999 144.752 104.419 144.698C103.839 144.649 103.341 144.46 102.923 144.13C102.506 143.805 102.196 143.357 101.991 142.787C101.785 142.212 101.737 141.658 101.846 141.125C101.957 140.596 102.217 140.118 102.625 139.691C103.035 139.269 103.596 138.93 104.309 138.674L107.9 137.388L111.334 146.977L109.886 147.496L106.89 139.13L104.747 139.897C104.33 140.046 104.009 140.251 103.783 140.511C103.552 140.773 103.411 141.061 103.359 141.375C103.302 141.69 103.326 141.994 103.431 142.285C103.586 142.719 103.884 143.031 104.325 143.221C104.766 143.412 105.298 143.396 105.92 143.173L108.501 142.249L108.939 143.471Z" fill="white"/>
<path d="M92.8471 145.725C93.1215 145.681 93.3708 145.737 93.595 145.894C93.8147 146.052 93.9469 146.269 93.9917 146.543C94.0365 146.817 93.9798 147.064 93.8217 147.284C93.6591 147.505 93.4406 147.637 93.1662 147.682C92.8919 147.727 92.6448 147.67 92.4251 147.512C92.2009 147.355 92.0664 147.139 92.0216 146.864C91.9769 146.59 92.0358 146.343 92.1984 146.122C92.3565 145.902 92.5727 145.77 92.8471 145.725Z" fill="white"/>
<path d="M76.8237 143.669C77.6936 143.763 78.4503 144.056 79.0939 144.548C79.7374 145.039 80.2165 145.694 80.5312 146.512C80.8455 147.334 80.9445 148.283 80.8281 149.356C80.7108 150.439 80.4108 151.346 79.9281 152.078C79.4449 152.814 78.8364 153.353 78.1026 153.695C77.3688 154.038 76.5669 154.162 75.697 154.067C74.818 153.972 74.059 153.679 73.4201 153.188C72.7811 152.697 72.3067 152.041 71.997 151.219C71.6822 150.401 71.5835 149.45 71.7009 148.367C71.8177 147.289 72.1175 146.384 72.6001 145.652C73.0783 144.92 73.682 144.383 74.4113 144.04C75.1406 143.698 75.9448 143.574 76.8237 143.669ZM76.6728 145.062C76.0883 144.999 75.5515 145.088 75.0625 145.328C74.5735 145.568 74.1669 145.957 73.8427 146.495C73.514 147.033 73.3053 147.711 73.2164 148.532C73.1271 149.356 73.1854 150.066 73.3913 150.661C73.5922 151.261 73.9058 151.73 74.332 152.07C74.7581 152.409 75.2635 152.611 75.8479 152.674C76.4279 152.737 76.9646 152.648 77.4582 152.409C77.9472 152.168 78.3563 151.777 78.6855 151.235C79.0142 150.698 79.2232 150.017 79.3126 149.192C79.4014 148.372 79.3429 147.664 79.1369 147.069C78.931 146.474 78.6149 146.006 78.1887 145.667C77.758 145.327 77.2527 145.125 76.6728 145.062Z" fill="white"/>
<path d="M69.6388 152.355L69.3325 153.638L61.6593 151.807L61.9655 150.524L65.0508 151.26L67.1087 142.636L68.5981 142.992L66.5402 151.616L69.6388 152.355Z" fill="white"/>
<path d="M51.9581 148.784L55.8205 139.359L57.2374 139.94L53.8727 148.15L58.3068 149.967L61.6715 141.757L63.0884 142.338L59.226 151.763L51.9581 148.784Z" fill="white"/>
<path d="M53.6686 138.917L48.6504 147.78L45.4857 145.988C44.7996 145.6 44.3024 145.151 43.994 144.641C43.6833 144.135 43.5384 143.6 43.5594 143.036C43.5781 142.476 43.7412 141.924 44.0488 141.381C44.3564 140.837 44.7467 140.412 45.2198 140.103C45.6905 139.799 46.2258 139.649 46.8256 139.653C47.4191 139.66 48.0609 139.858 48.751 140.249L50.9163 141.475L50.2764 142.605L48.236 141.45C47.7958 141.2 47.3982 141.075 47.0432 141.073C46.6842 141.069 46.3692 141.163 46.0981 141.355C45.8207 141.549 45.5878 141.812 45.3992 142.145C45.2083 142.482 45.1034 142.816 45.0843 143.145C45.0591 143.477 45.1417 143.793 45.3323 144.095C45.5229 144.396 45.8383 144.672 46.2785 144.921L47.9619 145.874L52.3301 138.159L53.6686 138.917Z" fill="white"/>
<path d="M45.6057 134.792L46.902 135.786L37.7948 141.637L36.3847 140.555L39.6832 130.248L40.974 131.238L38.1903 139.606L38.2554 139.656L45.6057 134.792ZM42.9629 137.787L38.7704 134.571L39.5527 133.551L43.7451 136.768L42.9629 137.787Z" fill="white"/>
<path d="M38.3205 129.715L31.0661 136.865L28.4413 134.202C27.9359 133.689 27.6012 133.181 27.4373 132.677C27.2734 132.173 27.2543 131.696 27.38 131.245C27.4993 130.795 27.7374 130.394 28.0945 130.042C28.3964 129.745 28.7071 129.55 29.0268 129.459C29.3433 129.365 29.6544 129.349 29.9601 129.413C30.2658 129.476 30.5582 129.591 30.8374 129.758L30.9055 129.69C30.6786 129.434 30.523 129.12 30.4386 128.749C30.3543 128.378 30.3701 127.988 30.4858 127.58C30.5951 127.171 30.838 126.781 31.2146 126.41C31.5846 126.046 32.0036 125.805 32.4718 125.69C32.9334 125.574 33.4278 125.611 33.9549 125.802C34.4821 125.993 35.0239 126.37 35.5806 126.935L38.3205 129.715ZM36.306 129.541L34.7513 127.964C34.2331 127.438 33.7598 127.162 33.3313 127.136C32.9029 127.111 32.5362 127.248 32.2311 127.549C32.0006 127.776 31.8488 128.041 31.7757 128.343C31.6962 128.646 31.7052 128.96 31.8027 129.286C31.9003 129.612 32.093 129.921 32.3809 130.213L33.9788 131.835L36.306 129.541ZM33.1267 132.674L31.6776 131.204C31.4377 130.961 31.1731 130.786 30.8838 130.681C30.5946 130.576 30.3079 130.551 30.0239 130.607C29.7335 130.663 29.473 130.805 29.2426 131.032C28.944 131.326 28.798 131.678 28.8047 132.087C28.805 132.496 29.0178 132.917 29.4433 133.349L30.9212 134.848L33.1267 132.674Z" fill="white"/>
<path d="M23.9261 130.408L23.0259 129.161L29.0896 124.784L29.0376 124.711L19.9371 124.882L19.1049 123.729L27.3636 117.767L28.2638 119.014L22.2111 123.383L22.2712 123.467L31.3446 123.282L32.1848 124.446L23.9261 130.408Z" fill="white"/>
<path d="M18.4178 121.23L17.2603 121.863L13.4754 114.942L14.633 114.309L16.1548 117.092L23.9339 112.838L24.6686 114.182L16.8895 118.435L18.4178 121.23Z" fill="white"/>
<path d="M15.1426 109.817L14.1796 107.25C13.9139 106.542 13.8033 105.897 13.848 105.316C13.8884 104.736 14.0702 104.235 14.3934 103.812C14.7123 103.39 15.1554 103.073 15.7229 102.86C16.2947 102.645 16.8478 102.589 17.3823 102.69C17.9125 102.793 18.3942 103.045 18.8274 103.447C19.2563 103.851 19.6037 104.407 19.8694 105.115L21.2095 108.687L11.6731 112.265L11.1328 110.825L19.4531 107.703L18.6534 105.572C18.4981 105.158 18.2887 104.84 18.0251 104.617C17.76 104.391 17.4701 104.254 17.1554 104.206C16.839 104.155 16.5358 104.183 16.2457 104.292C15.8147 104.454 15.5073 104.757 15.3233 105.2C15.1394 105.644 15.1635 106.175 15.3957 106.794L16.3587 109.361L15.1426 109.817Z" fill="white"/>
<path d="M12.1411 91.2595C12.189 91.5334 12.1356 91.7833 11.9808 92.0093C11.8252 92.2308 11.6105 92.3655 11.3367 92.4134C11.0629 92.4613 10.8152 92.4075 10.5936 92.2519C10.3713 92.0919 10.2362 91.875 10.1883 91.6011C10.1404 91.3273 10.1943 91.0796 10.3498 90.8581C10.5046 90.6321 10.7189 90.4951 10.9927 90.4472C11.2666 90.3993 11.5147 90.4554 11.737 90.6154C11.9585 90.771 12.0932 90.9857 12.1411 91.2595Z" fill="white"/>
</svg>
